<?xml version="1.0" encoding="iso-8859-1"?>
<!-- Uploaded to: SVG Repo, www.svgrepo.com, Generator: SVG Repo Mixer Tools -->
<!DOCTYPE svg PUBLIC "-//W3C//DTD SVG 1.1//EN" "http://www.w3.org/Graphics/SVG/1.1/DTD/svg11.dtd">
<svg fill="#000000" version="1.1" id="Capa_1" xmlns="http://www.w3.org/2000/svg" xmlns:xlink="http://www.w3.org/1999/xlink" 
	 width="800px" height="800px" viewBox="0 0 589.695 589.695"
	 xml:space="preserve">
<g>
	<g>
		<path d="M196.562,0v20.693h-28.449c-28.52,0-51.728,23.204-51.728,51.729v56.902h-85.35C13.894,129.323,0,143.217,0,160.358v93.11
			v87.937v165.526c0,17.141,13.894,31.035,31.035,31.035h15.52v51.729h56.902v-51.729h377.609v51.729h56.901v-51.729h20.693
			c17.141,0,31.035-13.895,31.035-31.035V341.405v-87.942v-93.11c0-17.141-13.895-31.035-31.035-31.035h-85.359V72.417
			c0-28.525-23.208-51.729-51.729-51.729h-28.448V0H196.562z M421.577,62.07c5.704,0,10.347,4.638,10.347,10.347v56.902H157.767
			V72.417c0-5.704,4.643-10.347,10.347-10.347h28.449v25.862h196.562V62.07H421.577z"/>
	</g>
</g>
</svg>